<svg width="210" height="88" viewBox="0 0 210 88" fill="none" xmlns="http://www.w3.org/2000/svg">
<path d="M52.2188 67.9688C51.5938 68.8438 50.875 69.5 50.0625 69.9375C49.25 70.4375 48.4688 70.7812 47.7188 70.9688C46.8438 71.2188 45.9062 71.3125 44.9062 71.25C44.5312 71.25 44.125 71.1562 43.6875 70.9688C43.3125 70.8438 42.9062 70.6562 42.4688 70.4062C42.0312 70.2188 41.6562 69.9062 41.3438 69.4688C40.4688 66.3438 39.6875 63.3125 39 60.375C38.3125 57.4375 37.7188 54.8125 37.2188 52.5C36.5938 49.8125 36.0625 47.2812 35.625 44.9062C33.9375 44.8438 31.4062 44.8438 28.0312 44.9062C24.7188 44.9062 21.125 45.0938 17.25 45.4688C16.0625 49.2188 15.125 52.375 14.4375 54.9375C13.75 57.5 13.25 59.625 12.9375 61.3125C12.625 63 12.5 64.375 12.5625 65.4375C12.625 66.5625 12.8125 67.5312 13.125 68.3438C12.25 69.2188 11.375 69.8438 10.5 70.2188C9.6875 70.6562 8.9375 70.9375 8.25 71.0625C7.4375 71.25 6.65625 71.3125 5.90625 71.25C4.90625 71.125 4.09375 70.9375 3.46875 70.6875C2.84375 70.5 2.375 70.1562 2.0625 69.6562C1.8125 69.2188 1.71875 68.5625 1.78125 67.6875C1.90625 66.8125 2.15625 65.6562 2.53125 64.2188C2.90625 62.9688 3.59375 60.75 4.59375 57.5625C5.65625 54.3125 6.84375 50.625 8.15625 46.5C5.78125 46.6875 3.9375 46.5625 2.625 46.125C1.375 45.6875 0.5 44.5 0 42.5625C1 42.25 2.0625 41.9688 3.1875 41.7188C4.375 41.4062 5.5 41.125 6.5625 40.875C7.75 40.625 8.96875 40.4062 10.2188 40.2188C11.5312 36.0938 12.875 32.0312 14.25 28.0312C15.625 24.0312 16.9062 20.4375 18.0938 17.25L23.5312 2.71875C23.6562 2.34375 24.3125 1.9375 25.5 1.5C26.6875 1.0625 28 0.71875 29.4375 0.46875C30.875 0.15625 32.25 0 33.5625 0C34.875 0 35.7188 0.28125 36.0938 0.84375C36.2812 2.15625 36.5312 3.78125 36.8438 5.71875C37.2188 7.65625 37.5625 9.53125 37.875 11.3438C38.25 13.4688 38.6875 15.6562 39.1875 17.9062C39.75 21.0312 40.3438 24.5 40.9688 28.3125C41.6562 32.125 42.5 36.1875 43.5 40.5C44.5 44.8125 45.6875 49.2812 47.0625 53.9062C48.4375 58.5312 50.1562 63.2188 52.2188 67.9688ZM26.1562 38.625C28.1562 38.5625 29.8125 38.5312 31.125 38.5312C32.4375 38.5312 33.5625 38.5625 34.5 38.625L34.2188 37.2188C33.8438 34.9062 33.4375 32.4375 33 29.8125C32.625 27.1875 32.2188 24.5938 31.7812 22.0312C31.4062 19.4688 31.0312 17.0312 30.6562 14.7188C30.2812 12.4062 29.9688 10.375 29.7188 8.625C29.0938 10.25 28.375 12.2188 27.5625 14.5312C26.75 16.7812 25.875 19.25 24.9375 21.9375C24 24.625 23.0312 27.4375 22.0312 30.375C21.0938 33.3125 20.1562 36.2188 19.2188 39.0938C20.3438 38.9688 21.4688 38.875 22.5938 38.8125C23.7188 38.75 24.9062 38.6875 26.1562 38.625Z" fill="#00D08B"/>
<path d="M73.9688 26.25C75.7188 26.25 77.3438 26.75 78.8438 27.75C80.3438 28.75 81.625 30.0625 82.6875 31.6875C83.75 33.3125 84.5938 35.1875 85.2188 37.3125C85.8438 39.375 86.1562 41.5312 86.1562 43.7812C86.1562 46.0312 85.9062 48.4062 85.4062 50.9062C84.9062 53.4062 84.125 55.7188 83.0625 57.8438C82 59.9688 80.625 61.75 78.9375 63.1875C77.25 64.5625 75.1875 65.25 72.75 65.25C70.8125 65.25 68.9688 64.5625 67.2188 63.1875C65.5312 61.75 64.2188 59.9688 63.2812 57.8438C63.1562 60.0312 62.875 62.25 62.4375 64.5C62 66.8125 61.7812 69.5625 61.7812 72.75C61.7812 73.6875 61.8125 74.75 61.875 75.9375C61.9375 77.125 62.0312 78.3125 62.1562 79.5C62.2812 80.6875 62.4688 81.7812 62.7188 82.7812C62.9688 83.7812 63.25 84.5625 63.5625 85.125C62.5 85.75 61.5312 86.2188 60.6562 86.5312C59.8438 86.8438 59.125 87.0625 58.5 87.1875C57.8125 87.375 57.1562 87.4688 56.5312 87.4688C55.7188 87.4688 55.1875 87.125 54.9375 86.4375C54.6875 85.75 54.5625 84.5312 54.5625 82.7812C54.5625 81.6562 54.5938 80.0312 54.6562 77.9062C54.7812 75.8438 54.9062 73.4688 55.0312 70.7812C55.2188 68.0938 55.375 65.2812 55.5 62.3438C55.6875 59.3438 55.8438 56.4062 55.9688 53.5312C56.1562 50.6562 56.2812 48 56.3438 45.5625C56.4688 43.0625 56.5312 40.9688 56.5312 39.2812C56.5312 37.2188 56.5 35.625 56.4375 34.5C56.375 33.3125 56.2812 32.4375 56.1562 31.875C56.0938 31.25 56 30.8125 55.875 30.5625C55.75 30.3125 55.5938 30.0312 55.4062 29.7188C55.9688 29.2812 56.625 28.9062 57.375 28.5938C58.1875 28.2188 58.9688 27.9688 59.7188 27.8438C60.5312 27.6562 61.25 27.5938 61.875 27.6562C62.5625 27.7188 63.0938 27.875 63.4688 28.125C63.7812 28.4375 64 28.9062 64.125 29.5312C64.3125 30.1562 64.4688 31.0938 64.5938 32.3438C65.7812 30.7188 67.125 29.3125 68.625 28.125C70.1875 26.875 71.9688 26.25 73.9688 26.25ZM70.3125 59.7188C71.4375 59.7188 72.5 59.1875 73.5 58.125C74.5625 57.0625 75.4688 55.7188 76.2188 54.0938C77.0312 52.4062 77.6562 50.5625 78.0938 48.5625C78.5938 46.5 78.8438 44.4688 78.8438 42.4688C78.8438 40.2812 78.625 38.5 78.1875 37.125C77.8125 35.6875 77.3125 34.5625 76.6875 33.75C76.125 32.875 75.5 32.2812 74.8125 31.9688C74.1875 31.5938 73.625 31.4062 73.125 31.4062C71.9375 31.4062 70.8125 31.9062 69.75 32.9062C68.6875 33.8438 67.75 35.0938 66.9375 36.6562C66.125 38.1562 65.4688 39.8438 64.9688 41.7188C64.5312 43.5938 64.3125 45.4688 64.3125 47.3438C64.3125 49.0938 64.4688 50.7188 64.7812 52.2188C65.1562 53.7188 65.625 55.0312 66.1875 56.1562C66.75 57.2812 67.375 58.1562 68.0625 58.7812C68.8125 59.4062 69.5625 59.7188 70.3125 59.7188ZM117.469 47.25C117.344 49.6875 116.906 51.9375 116.156 54C115.469 56.0625 114.5 57.875 113.25 59.4375C112 60.9375 110.5 62.125 108.75 63C107.062 63.875 105.188 64.3438 103.125 64.4062C101.312 64.4688 99.5938 64.0312 97.9688 63.0938C96.4062 62.1562 95.0312 60.8438 93.8438 59.1562C92.6562 57.4688 91.75 55.4688 91.125 53.1562C90.5625 50.7812 90.4062 48.2188 90.6562 45.4688C90.8438 42.2812 91.4375 39.5625 92.4375 37.3125C93.4375 35 94.5 33.0938 95.625 31.5938C96.75 30.0938 97.7812 29 98.7188 28.3125C99.7188 27.5625 100.344 27.125 100.594 27C101.031 26.8125 101.438 26.7812 101.812 26.9062C102.188 26.9688 102.594 27.0625 103.031 27.1875C103.156 27.25 103.281 27.4062 103.406 27.6562C103.656 28.0938 103.812 28.9062 103.875 30.0938C104.188 29.4062 104.594 28.8438 105.094 28.4062C105.594 27.9688 106.094 27.6562 106.594 27.4688C107.219 27.2188 107.844 27.0625 108.469 27C108.906 26.9375 109.656 27.2812 110.719 28.0312C111.844 28.7812 112.906 29.9688 113.906 31.5938C114.969 33.2188 115.875 35.3438 116.625 37.9688C117.375 40.5312 117.656 43.625 117.469 47.25ZM111.094 46.125C111.156 44.625 111.094 43.125 110.906 41.625C110.781 40.0625 110.531 38.6562 110.156 37.4062C109.844 36.0938 109.438 35.0625 108.938 34.3125C108.438 33.5 107.938 33.0938 107.438 33.0938C106.875 33.2188 106.25 33.5 105.562 33.9375C105 34.3125 104.375 34.9062 103.688 35.7188C103 36.5312 102.344 37.6875 101.719 39.1875C101.656 39 101.594 38.6562 101.531 38.1562C101.469 37.7188 101.406 37.1562 101.344 36.4688C101.344 35.7188 101.406 34.7188 101.531 33.4688C100.656 34.5312 99.9688 35.7812 99.4688 37.2188C99.0312 38.6562 98.6875 40.0312 98.4375 41.3438C98.1875 42.9062 98 44.4688 97.875 46.0312C97.8125 47.7188 97.875 49.375 98.0625 51C98.3125 52.625 98.6875 54.0625 99.1875 55.3125C99.75 56.5625 100.406 57.5625 101.156 58.3125C101.906 59.0625 102.812 59.4062 103.875 59.3438C104.938 59.2812 105.875 58.8438 106.688 58.0312C107.5 57.2188 108.219 56.1875 108.844 54.9375C109.469 53.6875 109.969 52.2812 110.344 50.7188C110.719 49.1562 110.969 47.625 111.094 46.125ZM157.781 21.6562C157.094 21.5312 156.156 21.4062 154.969 21.2812C153.844 21.1562 152.688 21.0625 151.5 21C150.125 20.9375 148.656 20.9062 147.094 20.9062C145.531 20.7812 143.562 20.7812 141.188 20.9062C138.875 20.9688 136.438 21 133.875 21C133.812 22.625 133.688 24.2812 133.5 25.9688C133.375 27.6562 133.25 29.3125 133.125 30.9375C132.812 33.9375 132.531 37 132.281 40.125C132.094 43.25 132 46.2188 132 49.0312C132 51.8438 132.156 54.4062 132.469 56.7188C132.844 58.9688 133.5 60.75 134.438 62.0625C133.688 62.625 132.875 63.0625 132 63.375C131.125 63.625 130.344 63.8125 129.656 63.9375C128.844 64.125 128.031 64.2188 127.219 64.2188C126.469 64.2188 125.844 63.9688 125.344 63.4688C124.844 62.9688 124.562 62.0938 124.5 60.8438C124.375 58.7188 124.344 56.5938 124.406 54.4688C124.531 52.2812 124.656 50 124.781 47.625C124.969 45.25 125.156 42.7188 125.344 40.0312C125.531 37.2812 125.719 34.2812 125.906 31.0312C126.094 27.6562 126.188 24.375 126.188 21.1875C123.812 21.25 121.812 21.2812 120.188 21.2812C118.562 21.2812 117.656 21.25 117.469 21.1875C117.281 21.0625 117.062 20.7812 116.812 20.3438C116.562 19.9688 116.25 19.4062 115.875 18.6562C115.438 17.9062 114.906 16.8438 114.281 15.4688C115.469 15.4688 116.781 15.4688 118.219 15.4688C119.594 15.4688 120.875 15.4375 122.062 15.375C123.438 15.3125 124.812 15.25 126.188 15.1875C126.125 14.1875 126.094 13.125 126.094 12C126.031 11.125 126 10.1562 126 9.09375C126 7.96875 125.969 6.9375 125.906 6C125.906 5.625 126.344 5.1875 127.219 4.6875C128.156 4.125 129.156 3.625 130.219 3.1875C131.281 2.75 132.25 2.46875 133.125 2.34375C134.062 2.21875 134.531 2.4375 134.531 3C134.531 3.5625 134.5 4.9375 134.438 7.125C134.438 9.25 134.375 11.8438 134.25 14.9062C134.875 14.9062 135.344 14.875 135.656 14.8125C138.969 14.6875 141.625 14.5625 143.625 14.4375C145.688 14.25 147.375 14.2188 148.688 14.3438C150 14.4688 151.156 14.7812 152.156 15.2812C153.156 15.7812 154.281 16.5938 155.531 17.7188C155.969 18.0938 156.344 18.5 156.656 18.9375C156.969 19.3125 157.219 19.75 157.406 20.25C157.656 20.6875 157.781 21.1562 157.781 21.6562ZM154.594 64.4062C150.219 64.4062 146.844 62.9375 144.469 60C142.094 57.0625 140.906 53.2188 140.906 48.4688C140.906 45.1562 141.375 42.0625 142.312 39.1875C143.312 36.25 144.625 33.7188 146.25 31.5938C147.875 29.4688 149.75 27.8125 151.875 26.625C154.062 25.375 156.344 24.75 158.719 24.75C161.031 24.75 163 25.5938 164.625 27.2812C166.25 28.9062 167.062 31.25 167.062 34.3125C167.062 36.3125 166.625 38.3125 165.75 40.3125C164.875 42.25 163.719 44 162.281 45.5625C160.906 47.0625 159.375 48.2812 157.688 49.2188C156 50.1562 154.375 50.625 152.812 50.625C151.812 50.625 150.969 50.5 150.281 50.25C149.594 50 148.969 49.625 148.406 49.125C148.594 52.6875 149.375 55.1875 150.75 56.625C152.125 58 153.906 58.6875 156.094 58.6875C157.594 58.6875 158.906 58.375 160.031 57.75C161.219 57.125 162.219 56.4062 163.031 55.5938C163.844 54.7812 164.5 53.9688 165 53.1562C165.5 52.2812 165.844 51.625 166.031 51.1875C166.219 50.8125 166.531 50.625 166.969 50.625C167.469 50.625 167.719 51 167.719 51.75C167.719 52.4375 167.469 53.5 166.969 54.9375C166.531 56.3125 165.781 57.7188 164.719 59.1562C163.656 60.5312 162.281 61.75 160.594 62.8125C158.969 63.875 156.969 64.4062 154.594 64.4062ZM158.906 28.7812C158.531 28.7812 157.812 29.1875 156.75 30C155.75 30.75 154.656 31.875 153.469 33.375C152.344 34.875 151.281 36.6875 150.281 38.8125C149.344 40.875 148.75 43.2188 148.5 45.8438C152.25 44.9688 155.219 43.5938 157.406 41.7188C159.594 39.8438 160.688 37.0938 160.688 33.4688C160.688 31.6562 160.469 30.4375 160.031 29.8125C159.594 29.125 159.219 28.7812 158.906 28.7812ZM192.094 40.9688C193.406 41.5312 194.656 42.4375 195.844 43.6875C197.031 44.875 197.781 46.6875 198.094 49.125C198.344 51.25 198.688 53.1562 199.125 54.8438C199.562 56.5312 200.188 58.0625 201 59.4375C201.812 60.75 202.875 61.9375 204.188 63C205.562 64 207.312 64.875 209.438 65.625C208.875 66.125 208.188 66.5312 207.375 66.8438C206.625 67.1562 205.906 67.375 205.219 67.5C204.406 67.75 203.562 67.875 202.688 67.875C200.625 68.0625 198.938 67.7812 197.625 67.0312C196.312 66.3438 195.281 65.3125 194.531 63.9375C193.781 62.5625 193.219 60.9688 192.844 59.1562C192.469 57.3438 192.188 55.4688 192 53.5312C191.938 52.7188 191.844 51.875 191.719 51C191.594 50.125 191.375 49.2812 191.062 48.4688C190.75 47.6562 190.312 46.9062 189.75 46.2188C189.25 45.5312 188.594 45 187.781 44.625C186.406 45.6875 185.125 46.625 183.938 47.4375C182.812 48.1875 181.812 48.8125 180.938 49.3125C181 52.6875 181.156 55.4688 181.406 57.6562C181.719 59.8438 182.125 61.3125 182.625 62.0625C182.188 62.375 181.75 62.6562 181.312 62.9062C180.875 63.0938 180.5 63.25 180.188 63.375C179.75 63.5625 179.344 63.6875 178.969 63.75C177.719 64.125 176.594 64.0625 175.594 63.5625C174.656 63.125 174.156 61.9062 174.094 59.9062L173.531 5.15625C173.531 4.65625 174 4.15625 174.938 3.65625C175.938 3.09375 177.031 2.65625 178.219 2.34375C179.406 2.03125 180.469 1.875 181.406 1.875C182.406 1.875 182.875 2.15625 182.812 2.71875C182.625 7.03125 182.438 11.0938 182.25 14.9062C182.062 18.7188 181.906 22.0938 181.781 25.0312C181.594 28.4688 181.438 31.5938 181.312 34.4062C181.188 36.0938 181.094 37.7188 181.031 39.2812C181.031 40.8438 181 42.3438 180.938 43.7812C182.125 42.8438 183.375 41.8125 184.688 40.6875C186 39.5625 187.25 38.3125 188.438 36.9375C189.625 35.5625 190.625 34.0938 191.438 32.5312C192.25 30.9062 192.719 29.1875 192.844 27.375C193.531 26.875 194.219 26.4688 194.906 26.1562C195.656 25.7812 196.312 25.5 196.875 25.3125C197.562 25.0625 198.188 24.9375 198.75 24.9375C200.188 24.875 201.031 25.1875 201.281 25.875C201.469 26.375 201.438 27.125 201.188 28.125C201 29.0625 200.531 30.2188 199.781 31.5938C199.094 32.9062 198.125 34.375 196.875 36C195.625 37.5625 194.031 39.2188 192.094 40.9688Z" fill="black"/>
</svg>
